<svg width="531" height="59" viewBox="0 0 531 59" fill="none" xmlns="http://www.w3.org/2000/svg">
<rect width="531" height="59" rx="16" fill="#253744"/>
<path d="M17.3413 29.25C17.3413 27.5333 17.7246 26 18.4913 24.65C19.2746 23.2833 20.333 22.225 21.6663 21.475C23.0163 20.7083 24.5246 20.325 26.1913 20.325C28.1413 20.325 29.8496 20.825 31.3163 21.825C32.783 22.825 33.808 24.2083 34.3913 25.975H30.3663C29.9663 25.1417 29.3996 24.5167 28.6663 24.1C27.9496 23.6833 27.1163 23.475 26.1663 23.475C25.1496 23.475 24.2413 23.7167 23.4413 24.2C22.658 24.6667 22.0413 25.3333 21.5913 26.2C21.158 27.0667 20.9413 28.0833 20.9413 29.25C20.9413 30.4 21.158 31.4167 21.5913 32.3C22.0413 33.1667 22.658 33.8417 23.4413 34.325C24.2413 34.7917 25.1496 35.025 26.1663 35.025C27.1163 35.025 27.9496 34.8167 28.6663 34.4C29.3996 33.9667 29.9663 33.3333 30.3663 32.5H34.3913C33.808 34.2833 32.783 35.675 31.3163 36.675C29.8663 37.6583 28.158 38.15 26.1913 38.15C24.5246 38.15 23.0163 37.775 21.6663 37.025C20.333 36.2583 19.2746 35.2 18.4913 33.85C17.7246 32.5 17.3413 30.9667 17.3413 29.25ZM45.4808 38.175C43.8474 38.175 42.3474 37.7917 40.9808 37.025C39.6141 36.2583 38.5308 35.2 37.7308 33.85C36.9308 32.4833 36.5308 30.9417 36.5308 29.225C36.5308 27.525 36.9308 26 37.7308 24.65C38.5308 23.2833 39.6141 22.2167 40.9808 21.45C42.3474 20.6833 43.8474 20.3 45.4808 20.3C47.1308 20.3 48.6308 20.6833 49.9808 21.45C51.3474 22.2167 52.4224 23.2833 53.2058 24.65C54.0058 26 54.4058 27.525 54.4058 29.225C54.4058 30.9417 54.0058 32.4833 53.2058 33.85C52.4224 35.2 51.3474 36.2583 49.9808 37.025C48.6141 37.7917 47.1141 38.175 45.4808 38.175ZM45.4808 35.05C46.5308 35.05 47.4558 34.8167 48.2558 34.35C49.0558 33.8667 49.6808 33.1833 50.1308 32.3C50.5808 31.4167 50.8058 30.3917 50.8058 29.225C50.8058 28.0583 50.5808 27.0417 50.1308 26.175C49.6808 25.2917 49.0558 24.6167 48.2558 24.15C47.4558 23.6833 46.5308 23.45 45.4808 23.45C44.4308 23.45 43.4974 23.6833 42.6808 24.15C41.8808 24.6167 41.2558 25.2917 40.8058 26.175C40.3558 27.0417 40.1308 28.0583 40.1308 29.225C40.1308 30.3917 40.3558 31.4167 40.8058 32.3C41.2558 33.1833 41.8808 33.8667 42.6808 34.35C43.4974 34.8167 44.4308 35.05 45.4808 35.05ZM76.0347 20.55V38H72.5347V26.65L67.8597 38H65.2097L60.5097 26.65V38H57.0097V20.55H60.9847L66.5347 33.525L72.0847 20.55H76.0347ZM92.22 25.95C92.22 26.8833 91.995 27.7583 91.545 28.575C91.1117 29.3917 90.42 30.05 89.47 30.55C88.5367 31.05 87.3534 31.3 85.92 31.3H82.995V38H79.495V20.55H85.92C87.27 20.55 88.42 20.7833 89.37 21.25C90.32 21.7167 91.0284 22.3583 91.495 23.175C91.9784 23.9917 92.22 24.9167 92.22 25.95ZM85.77 28.475C86.7367 28.475 87.4534 28.2583 87.92 27.825C88.3867 27.375 88.62 26.75 88.62 25.95C88.62 24.25 87.67 23.4 85.77 23.4H82.995V28.475H85.77ZM98.155 20.55V31.35C98.155 32.5333 98.4633 33.4417 99.08 34.075C99.6966 34.6917 100.563 35 101.68 35C102.813 35 103.688 34.6917 104.305 34.075C104.922 33.4417 105.23 32.5333 105.23 31.35V20.55H108.755V31.325C108.755 32.8083 108.43 34.0667 107.78 35.1C107.147 36.1167 106.288 36.8833 105.205 37.4C104.138 37.9167 102.947 38.175 101.63 38.175C100.33 38.175 99.1466 37.9167 98.08 37.4C97.03 36.8833 96.1966 36.1167 95.58 35.1C94.9633 34.0667 94.655 32.8083 94.655 31.325V20.55H98.155ZM124.012 20.55V23.375H119.362V38H115.862V23.375H111.212V20.55H124.012ZM130.065 23.375V27.75H135.94V30.525H130.065V35.15H136.69V38H126.565V20.525H136.69V23.375H130.065ZM148.871 38L145.021 31.2H143.371V38H139.871V20.55H146.421C147.771 20.55 148.921 20.7917 149.871 21.275C150.821 21.7417 151.529 22.3833 151.996 23.2C152.479 24 152.721 24.9 152.721 25.9C152.721 27.05 152.388 28.0917 151.721 29.025C151.054 29.9417 150.063 30.575 148.746 30.925L152.921 38H148.871ZM143.371 28.575H146.296C147.246 28.575 147.954 28.35 148.421 27.9C148.888 27.4333 149.121 26.7917 149.121 25.975C149.121 25.175 148.888 24.5583 148.421 24.125C147.954 23.675 147.246 23.45 146.296 23.45H143.371V28.575ZM159.712 34.325L156.787 41.35H154.537L156.162 34.325H159.712ZM174.216 38.175C173 38.175 171.9 37.9667 170.916 37.55C169.95 37.1333 169.183 36.5333 168.616 35.75C168.05 34.9667 167.758 34.0417 167.741 32.975H171.491C171.541 33.6917 171.791 34.2583 172.241 34.675C172.708 35.0917 173.341 35.3 174.141 35.3C174.958 35.3 175.6 35.1083 176.066 34.725C176.533 34.325 176.766 33.8083 176.766 33.175C176.766 32.6583 176.608 32.2333 176.291 31.9C175.975 31.5667 175.575 31.3083 175.091 31.125C174.625 30.925 173.975 30.7083 173.141 30.475C172.008 30.1417 171.083 29.8167 170.366 29.5C169.666 29.1667 169.058 28.675 168.541 28.025C168.041 27.3583 167.791 26.475 167.791 25.375C167.791 24.3417 168.05 23.4417 168.566 22.675C169.083 21.9083 169.808 21.325 170.741 20.925C171.675 20.5083 172.741 20.3 173.941 20.3C175.741 20.3 177.2 20.7417 178.316 21.625C179.45 22.4917 180.075 23.7083 180.191 25.275H176.341C176.308 24.675 176.05 24.1833 175.566 23.8C175.1 23.4 174.475 23.2 173.691 23.2C173.008 23.2 172.458 23.375 172.041 23.725C171.641 24.075 171.441 24.5833 171.441 25.25C171.441 25.7167 171.591 26.1083 171.891 26.425C172.208 26.725 172.591 26.975 173.041 27.175C173.508 27.3583 174.158 27.575 174.991 27.825C176.125 28.1583 177.05 28.4917 177.766 28.825C178.483 29.1583 179.1 29.6583 179.616 30.325C180.133 30.9917 180.391 31.8667 180.391 32.95C180.391 33.8833 180.15 34.75 179.666 35.55C179.183 36.35 178.475 36.9917 177.541 37.475C176.608 37.9417 175.5 38.175 174.216 38.175ZM191.526 38.175C189.892 38.175 188.392 37.7917 187.026 37.025C185.659 36.2583 184.576 35.2 183.776 33.85C182.976 32.4833 182.576 30.9417 182.576 29.225C182.576 27.525 182.976 26 183.776 24.65C184.576 23.2833 185.659 22.2167 187.026 21.45C188.392 20.6833 189.892 20.3 191.526 20.3C193.176 20.3 194.676 20.6833 196.026 21.45C197.392 22.2167 198.467 23.2833 199.251 24.65C200.051 26 200.451 27.525 200.451 29.225C200.451 30.9417 200.051 32.4833 199.251 33.85C198.467 35.2 197.392 36.2583 196.026 37.025C194.659 37.7917 193.159 38.175 191.526 38.175ZM191.526 35.05C192.576 35.05 193.501 34.8167 194.301 34.35C195.101 33.8667 195.726 33.1833 196.176 32.3C196.626 31.4167 196.851 30.3917 196.851 29.225C196.851 28.0583 196.626 27.0417 196.176 26.175C195.726 25.2917 195.101 24.6167 194.301 24.15C193.501 23.6833 192.576 23.45 191.526 23.45C190.476 23.45 189.542 23.6833 188.726 24.15C187.926 24.6167 187.301 25.2917 186.851 26.175C186.401 27.0417 186.176 28.0583 186.176 29.225C186.176 30.3917 186.401 31.4167 186.851 32.3C187.301 33.1833 187.926 33.8667 188.726 34.35C189.542 34.8167 190.476 35.05 191.526 35.05ZM213.83 20.55V23.375H206.555V27.85H212.13V30.625H206.555V38H203.055V20.55H213.83ZM228.186 20.55V23.375H223.536V38H220.036V23.375H215.386V20.55H228.186ZM254.065 20.55L249.19 38H245.065L241.79 25.575L238.365 38L234.265 38.025L229.565 20.55H233.315L236.39 34.1L239.94 20.55H243.84L247.19 34.025L250.29 20.55H254.065ZM267.05 34.675H260.1L258.95 38H255.275L261.55 20.525H265.625L271.9 38H268.2L267.05 34.675ZM266.1 31.875L263.575 24.575L261.05 31.875H266.1ZM283.246 38L279.396 31.2H277.746V38H274.246V20.55H280.796C282.146 20.55 283.296 20.7917 284.246 21.275C285.196 21.7417 285.904 22.3833 286.371 23.2C286.854 24 287.096 24.9 287.096 25.9C287.096 27.05 286.763 28.0917 286.096 29.025C285.429 29.9417 284.438 30.575 283.121 30.925L287.296 38H283.246ZM277.746 28.575H280.671C281.621 28.575 282.329 28.35 282.796 27.9C283.263 27.4333 283.496 26.7917 283.496 25.975C283.496 25.175 283.263 24.5583 282.796 24.125C282.329 23.675 281.621 23.45 280.671 23.45H277.746V28.575ZM293.762 23.375V27.75H299.637V30.525H293.762V35.15H300.387V38H290.262V20.525H300.387V23.375H293.762ZM320.224 34.675H313.274L312.124 38H308.449L314.724 20.525H318.799L325.074 38H321.374L320.224 34.675ZM319.274 31.875L316.749 24.575L314.224 31.875H319.274ZM342.345 38H338.845L330.92 26.025V38H327.42V20.525H330.92L338.845 32.525V20.525H342.345V38ZM351.904 20.55C353.737 20.55 355.345 20.9083 356.729 21.625C358.129 22.3417 359.204 23.3667 359.954 24.7C360.72 26.0167 361.104 27.55 361.104 29.3C361.104 31.05 360.72 32.5833 359.954 33.9C359.204 35.2 358.129 36.2083 356.729 36.925C355.345 37.6417 353.737 38 351.904 38H345.804V20.55H351.904ZM351.779 35.025C353.612 35.025 355.029 34.525 356.029 33.525C357.029 32.525 357.529 31.1167 357.529 29.3C357.529 27.4833 357.029 26.0667 356.029 25.05C355.029 24.0167 353.612 23.5 351.779 23.5H349.304V35.025H351.779ZM384.156 20.55V38H380.656V30.575H373.181V38H369.681V20.55H373.181V27.725H380.656V20.55H384.156ZM398.3 34.675H391.35L390.2 38H386.525L392.8 20.525H396.875L403.15 38H399.45L398.3 34.675ZM397.35 31.875L394.825 24.575L392.3 31.875H397.35ZM414.496 38L410.646 31.2H408.996V38H405.496V20.55H412.046C413.396 20.55 414.546 20.7917 415.496 21.275C416.446 21.7417 417.154 22.3833 417.621 23.2C418.104 24 418.346 24.9 418.346 25.9C418.346 27.05 418.013 28.0917 417.346 29.025C416.679 29.9417 415.688 30.575 414.371 30.925L418.546 38H414.496ZM408.996 28.575H411.921C412.871 28.575 413.579 28.35 414.046 27.9C414.513 27.4333 414.746 26.7917 414.746 25.975C414.746 25.175 414.513 24.5583 414.046 24.125C413.579 23.675 412.871 23.45 411.921 23.45H408.996V28.575ZM427.612 20.55C429.445 20.55 431.053 20.9083 432.437 21.625C433.837 22.3417 434.912 23.3667 435.662 24.7C436.428 26.0167 436.812 27.55 436.812 29.3C436.812 31.05 436.428 32.5833 435.662 33.9C434.912 35.2 433.837 36.2083 432.437 36.925C431.053 37.6417 429.445 38 427.612 38H421.512V20.55H427.612ZM427.487 35.025C429.32 35.025 430.737 34.525 431.737 33.525C432.737 32.525 433.237 31.1167 433.237 29.3C433.237 27.4833 432.737 26.0667 431.737 25.05C430.737 24.0167 429.32 23.5 427.487 23.5H425.012V35.025H427.487ZM462.757 20.55L457.882 38H453.757L450.482 25.575L447.057 38L442.957 38.025L438.257 20.55H442.007L445.082 34.1L448.632 20.55H452.532L455.882 34.025L458.982 20.55H462.757ZM475.742 34.675H468.792L467.642 38H463.967L470.242 20.525H474.317L480.592 38H476.892L475.742 34.675ZM474.792 31.875L472.267 24.575L469.742 31.875H474.792ZM491.937 38L488.087 31.2H486.437V38H482.937V20.55H489.487C490.837 20.55 491.987 20.7917 492.937 21.275C493.887 21.7417 494.596 22.3833 495.062 23.2C495.546 24 495.787 24.9 495.787 25.9C495.787 27.05 495.454 28.0917 494.787 29.025C494.121 29.9417 493.129 30.575 491.812 30.925L495.987 38H491.937ZM486.437 28.575H489.362C490.312 28.575 491.021 28.35 491.487 27.9C491.954 27.4333 492.187 26.7917 492.187 25.975C492.187 25.175 491.954 24.5583 491.487 24.125C491.021 23.675 490.312 23.45 489.362 23.45H486.437V28.575ZM502.453 23.375V27.75H508.328V30.525H502.453V35.15H509.078V38H498.953V20.525H509.078V23.375H502.453Z" fill="#48B19B"/>
</svg>
