<svg width="390" height="59" viewBox="0 0 390 59" fill="none" xmlns="http://www.w3.org/2000/svg">
<rect width="390" height="59" rx="16" fill="#253744"/>
<path d="M21.2093 20.55C23.0426 20.55 24.6509 20.9083 26.0343 21.625C27.4343 22.3417 28.5093 23.3667 29.2593 24.7C30.0259 26.0167 30.4093 27.55 30.4093 29.3C30.4093 31.05 30.0259 32.5833 29.2593 33.9C28.5093 35.2 27.4343 36.2083 26.0343 36.925C24.6509 37.6417 23.0426 38 21.2093 38H15.1093V20.55H21.2093ZM21.0843 35.025C22.9176 35.025 24.3343 34.525 25.3343 33.525C26.3343 32.525 26.8343 31.1167 26.8343 29.3C26.8343 27.4833 26.3343 26.0667 25.3343 25.05C24.3343 24.0167 22.9176 23.5 21.0843 23.5H18.6093V35.025H21.0843ZM36.5292 23.375V27.75H42.4042V30.525H36.5292V35.15H43.1542V38H33.0292V20.525H43.1542V23.375H36.5292ZM62.0099 20.55L55.6099 38H51.3599L44.9599 20.55H48.7099L53.5099 34.425L58.2849 20.55H62.0099ZM67.6083 23.375V27.75H73.4833V30.525H67.6083V35.15H74.2333V38H64.1083V20.525H74.2333V23.375H67.6083ZM80.914 35.225H86.664V38H77.414V20.55H80.914V35.225ZM96.9886 38.175C95.3552 38.175 93.8552 37.7917 92.4886 37.025C91.1219 36.2583 90.0386 35.2 89.2386 33.85C88.4386 32.4833 88.0386 30.9417 88.0386 29.225C88.0386 27.525 88.4386 26 89.2386 24.65C90.0386 23.2833 91.1219 22.2167 92.4886 21.45C93.8552 20.6833 95.3552 20.3 96.9886 20.3C98.6386 20.3 100.139 20.6833 101.489 21.45C102.855 22.2167 103.93 23.2833 104.714 24.65C105.514 26 105.914 27.525 105.914 29.225C105.914 30.9417 105.514 32.4833 104.714 33.85C103.93 35.2 102.855 36.2583 101.489 37.025C100.122 37.7917 98.6219 38.175 96.9886 38.175ZM96.9886 35.05C98.0386 35.05 98.9636 34.8167 99.7636 34.35C100.564 33.8667 101.189 33.1833 101.639 32.3C102.089 31.4167 102.314 30.3917 102.314 29.225C102.314 28.0583 102.089 27.0417 101.639 26.175C101.189 25.2917 100.564 24.6167 99.7636 24.15C98.9636 23.6833 98.0386 23.45 96.9886 23.45C95.9386 23.45 95.0052 23.6833 94.1886 24.15C93.3886 24.6167 92.7636 25.2917 92.3136 26.175C91.8636 27.0417 91.6386 28.0583 91.6386 29.225C91.6386 30.3917 91.8636 31.4167 92.3136 32.3C92.7636 33.1833 93.3886 33.8667 94.1886 34.35C95.0052 34.8167 95.9386 35.05 96.9886 35.05ZM121.242 25.95C121.242 26.8833 121.017 27.7583 120.567 28.575C120.134 29.3917 119.442 30.05 118.492 30.55C117.559 31.05 116.376 31.3 114.942 31.3H112.017V38H108.517V20.55H114.942C116.292 20.55 117.442 20.7833 118.392 21.25C119.342 21.7167 120.051 22.3583 120.517 23.175C121.001 23.9917 121.242 24.9167 121.242 25.95ZM114.792 28.475C115.759 28.475 116.476 28.2583 116.942 27.825C117.409 27.375 117.642 26.75 117.642 25.95C117.642 24.25 116.692 23.4 114.792 23.4H112.017V28.475H114.792ZM142.752 20.55V38H139.252V26.65L134.577 38H131.927L127.227 26.65V38H123.727V20.55H127.702L133.252 33.525L138.802 20.55H142.752ZM149.713 23.375V27.75H155.588V30.525H149.713V35.15H156.338V38H146.213V20.525H156.338V23.375H149.713ZM174.443 38H170.943L163.018 26.025V38H159.518V20.525H163.018L170.943 32.525V20.525H174.443V38ZM189.777 20.55V23.375H185.127V38H181.627V23.375H176.977V20.55H189.777ZM201.788 23.375V27.75H207.663V30.525H201.788V35.15H208.413V38H198.288V20.525H208.413V23.375H201.788ZM226.519 38H223.019L215.094 26.025V38H211.594V20.525H215.094L223.019 32.525V20.525H226.519V38ZM245.652 20.55L239.252 38H235.002L228.602 20.55H232.352L237.152 34.425L241.927 20.55H245.652ZM251.251 20.55V38H247.751V20.55H251.251ZM263.709 38L259.859 31.2H258.209V38H254.709V20.55H261.259C262.609 20.55 263.759 20.7917 264.709 21.275C265.659 21.7417 266.367 22.3833 266.834 23.2C267.317 24 267.559 24.9 267.559 25.9C267.559 27.05 267.226 28.0917 266.559 29.025C265.892 29.9417 264.901 30.575 263.584 30.925L267.759 38H263.709ZM258.209 28.575H261.134C262.084 28.575 262.792 28.35 263.259 27.9C263.726 27.4333 263.959 26.7917 263.959 25.975C263.959 25.175 263.726 24.5583 263.259 24.125C262.792 23.675 262.084 23.45 261.134 23.45H258.209V28.575ZM278.825 38.175C277.191 38.175 275.691 37.7917 274.325 37.025C272.958 36.2583 271.875 35.2 271.075 33.85C270.275 32.4833 269.875 30.9417 269.875 29.225C269.875 27.525 270.275 26 271.075 24.65C271.875 23.2833 272.958 22.2167 274.325 21.45C275.691 20.6833 277.191 20.3 278.825 20.3C280.475 20.3 281.975 20.6833 283.325 21.45C284.691 22.2167 285.766 23.2833 286.55 24.65C287.35 26 287.75 27.525 287.75 29.225C287.75 30.9417 287.35 32.4833 286.55 33.85C285.766 35.2 284.691 36.2583 283.325 37.025C281.958 37.7917 280.458 38.175 278.825 38.175ZM278.825 35.05C279.875 35.05 280.8 34.8167 281.6 34.35C282.4 33.8667 283.025 33.1833 283.475 32.3C283.925 31.4167 284.15 30.3917 284.15 29.225C284.15 28.0583 283.925 27.0417 283.475 26.175C283.025 25.2917 282.4 24.6167 281.6 24.15C280.8 23.6833 279.875 23.45 278.825 23.45C277.775 23.45 276.841 23.6833 276.025 24.15C275.225 24.6167 274.6 25.2917 274.15 26.175C273.7 27.0417 273.475 28.0583 273.475 29.225C273.475 30.3917 273.7 31.4167 274.15 32.3C274.6 33.1833 275.225 33.8667 276.025 34.35C276.841 34.8167 277.775 35.05 278.825 35.05ZM305.278 38H301.778L293.853 26.025V38H290.353V20.525H293.853L301.778 32.525V20.525H305.278V38ZM327.762 20.55V38H324.262V26.65L319.587 38H316.937L312.237 26.65V38H308.737V20.55H312.712L318.262 33.525L323.812 20.55H327.762ZM334.723 23.375V27.75H340.598V30.525H334.723V35.15H341.348V38H331.223V20.525H341.348V23.375H334.723ZM359.453 38H355.953L348.028 26.025V38H344.528V20.525H348.028L355.953 32.525V20.525H359.453V38ZM374.787 20.55V23.375H370.137V38H366.637V23.375H361.987V20.55H374.787Z" fill="#48B19B"/>
</svg>
