<svg width="447" height="59" viewBox="0 0 447 59" fill="none" xmlns="http://www.w3.org/2000/svg">
<rect width="447" height="59" rx="16" fill="#253744"/>
<path d="M21.4384 20.55V38H17.9384V20.55H21.4384ZM39.8214 38H36.3214L28.3964 26.025V38H24.8964V20.525H28.3964L36.3214 32.525V20.525H39.8214V38ZM55.1552 20.55V23.375H50.5052V38H47.0052V23.375H42.3552V20.55H55.1552ZM61.2089 23.375V27.75H67.0839V30.525H61.2089V35.15H67.8339V38H57.7089V20.525H67.8339V23.375H61.2089ZM80.0146 38L76.1646 31.2H74.5146V38H71.0146V20.55H77.5646C78.9146 20.55 80.0646 20.7917 81.0146 21.275C81.9646 21.7417 82.6729 22.3833 83.1396 23.2C83.6229 24 83.8646 24.9 83.8646 25.9C83.8646 27.05 83.5312 28.0917 82.8646 29.025C82.1979 29.9417 81.2062 30.575 79.8896 30.925L84.0646 38H80.0146ZM74.5146 28.575H77.4396C78.3896 28.575 79.0979 28.35 79.5646 27.9C80.0312 27.4333 80.2646 26.7917 80.2646 25.975C80.2646 25.175 80.0312 24.5583 79.5646 24.125C79.0979 23.675 78.3896 23.45 77.4396 23.45H74.5146V28.575ZM101.955 38H98.4552L90.5302 26.025V38H87.0302V20.525H90.5302L98.4552 32.525V20.525H101.955V38ZM108.914 23.375V27.75H114.789V30.525H108.914V35.15H115.539V38H105.414V20.525H115.539V23.375H108.914ZM130.595 20.55V23.375H125.945V38H122.445V23.375H117.795V20.55H130.595ZM136.973 34.325L134.048 41.35H131.798L133.423 34.325H136.973ZM154.453 38L150.603 31.2H148.953V38H145.453V20.55H152.003C153.353 20.55 154.503 20.7917 155.453 21.275C156.403 21.7417 157.111 22.3833 157.578 23.2C158.061 24 158.303 24.9 158.303 25.9C158.303 27.05 157.97 28.0917 157.303 29.025C156.636 29.9417 155.645 30.575 154.328 30.925L158.503 38H154.453ZM148.953 28.575H151.878C152.828 28.575 153.536 28.35 154.003 27.9C154.47 27.4333 154.703 26.7917 154.703 25.975C154.703 25.175 154.47 24.5583 154.003 24.125C153.536 23.675 152.828 23.45 151.878 23.45H148.953V28.575ZM169.569 38.175C167.935 38.175 166.435 37.7917 165.069 37.025C163.702 36.2583 162.619 35.2 161.819 33.85C161.019 32.4833 160.619 30.9417 160.619 29.225C160.619 27.525 161.019 26 161.819 24.65C162.619 23.2833 163.702 22.2167 165.069 21.45C166.435 20.6833 167.935 20.3 169.569 20.3C171.219 20.3 172.719 20.6833 174.069 21.45C175.435 22.2167 176.51 23.2833 177.294 24.65C178.094 26 178.494 27.525 178.494 29.225C178.494 30.9417 178.094 32.4833 177.294 33.85C176.51 35.2 175.435 36.2583 174.069 37.025C172.702 37.7917 171.202 38.175 169.569 38.175ZM169.569 35.05C170.619 35.05 171.544 34.8167 172.344 34.35C173.144 33.8667 173.769 33.1833 174.219 32.3C174.669 31.4167 174.894 30.3917 174.894 29.225C174.894 28.0583 174.669 27.0417 174.219 26.175C173.769 25.2917 173.144 24.6167 172.344 24.15C171.544 23.6833 170.619 23.45 169.569 23.45C168.519 23.45 167.585 23.6833 166.769 24.15C165.969 24.6167 165.344 25.2917 164.894 26.175C164.444 27.0417 164.219 28.0583 164.219 29.225C164.219 30.3917 164.444 31.4167 164.894 32.3C165.344 33.1833 165.969 33.8667 166.769 34.35C167.585 34.8167 168.519 35.05 169.569 35.05ZM184.548 20.55V31.35C184.548 32.5333 184.856 33.4417 185.473 34.075C186.089 34.6917 186.956 35 188.073 35C189.206 35 190.081 34.6917 190.698 34.075C191.314 33.4417 191.623 32.5333 191.623 31.35V20.55H195.148V31.325C195.148 32.8083 194.823 34.0667 194.173 35.1C193.539 36.1167 192.681 36.8833 191.598 37.4C190.531 37.9167 189.339 38.175 188.023 38.175C186.723 38.175 185.539 37.9167 184.473 37.4C183.423 36.8833 182.589 36.1167 181.973 35.1C181.356 34.0667 181.048 32.8083 181.048 31.325V20.55H184.548ZM210.404 20.55V23.375H205.754V38H202.254V23.375H197.604V20.55H210.404ZM216.458 23.375V27.75H222.333V30.525H216.458V35.15H223.083V38H212.958V20.525H223.083V23.375H216.458ZM235.264 38L231.414 31.2H229.764V38H226.264V20.55H232.814C234.164 20.55 235.314 20.7917 236.264 21.275C237.214 21.7417 237.922 22.3833 238.389 23.2C238.872 24 239.114 24.9 239.114 25.9C239.114 27.05 238.78 28.0917 238.114 29.025C237.447 29.9417 236.455 30.575 235.139 30.925L239.314 38H235.264ZM229.764 28.575H232.689C233.639 28.575 234.347 28.35 234.814 27.9C235.28 27.4333 235.514 26.7917 235.514 25.975C235.514 25.175 235.28 24.5583 234.814 24.125C234.347 23.675 233.639 23.45 232.689 23.45H229.764V28.575ZM248.304 38.175C247.088 38.175 245.988 37.9667 245.004 37.55C244.038 37.1333 243.271 36.5333 242.704 35.75C242.138 34.9667 241.846 34.0417 241.829 32.975H245.579C245.629 33.6917 245.879 34.2583 246.329 34.675C246.796 35.0917 247.429 35.3 248.229 35.3C249.046 35.3 249.688 35.1083 250.154 34.725C250.621 34.325 250.854 33.8083 250.854 33.175C250.854 32.6583 250.696 32.2333 250.379 31.9C250.063 31.5667 249.663 31.3083 249.179 31.125C248.713 30.925 248.063 30.7083 247.229 30.475C246.096 30.1417 245.171 29.8167 244.454 29.5C243.754 29.1667 243.146 28.675 242.629 28.025C242.129 27.3583 241.879 26.475 241.879 25.375C241.879 24.3417 242.138 23.4417 242.654 22.675C243.171 21.9083 243.896 21.325 244.829 20.925C245.763 20.5083 246.829 20.3 248.029 20.3C249.829 20.3 251.288 20.7417 252.404 21.625C253.538 22.4917 254.163 23.7083 254.279 25.275H250.429C250.396 24.675 250.138 24.1833 249.654 23.8C249.188 23.4 248.563 23.2 247.779 23.2C247.096 23.2 246.546 23.375 246.129 23.725C245.729 24.075 245.529 24.5833 245.529 25.25C245.529 25.7167 245.679 26.1083 245.979 26.425C246.296 26.725 246.679 26.975 247.129 27.175C247.596 27.3583 248.246 27.575 249.079 27.825C250.213 28.1583 251.138 28.4917 251.854 28.825C252.571 29.1583 253.188 29.6583 253.704 30.325C254.221 30.9917 254.479 31.8667 254.479 32.95C254.479 33.8833 254.238 34.75 253.754 35.55C253.271 36.35 252.563 36.9917 251.629 37.475C250.696 37.9417 249.588 38.175 248.304 38.175ZM274.171 34.675H267.221L266.071 38H262.396L268.671 20.525H272.746L279.021 38H275.321L274.171 34.675ZM273.221 31.875L270.696 24.575L268.171 31.875H273.221ZM296.291 38H292.791L284.866 26.025V38H281.366V20.525H284.866L292.791 32.525V20.525H296.291V38ZM305.85 20.55C307.683 20.55 309.292 20.9083 310.675 21.625C312.075 22.3417 313.15 23.3667 313.9 24.7C314.667 26.0167 315.05 27.55 315.05 29.3C315.05 31.05 314.667 32.5833 313.9 33.9C313.15 35.2 312.075 36.2083 310.675 36.925C309.292 37.6417 307.683 38 305.85 38H299.75V20.55H305.85ZM305.725 35.025C307.558 35.025 308.975 34.525 309.975 33.525C310.975 32.525 311.475 31.1167 311.475 29.3C311.475 27.4833 310.975 26.0667 309.975 25.05C308.975 24.0167 307.558 23.5 305.725 23.5H303.25V35.025H305.725ZM329.652 38.175C328.435 38.175 327.335 37.9667 326.352 37.55C325.385 37.1333 324.619 36.5333 324.052 35.75C323.485 34.9667 323.194 34.0417 323.177 32.975H326.927C326.977 33.6917 327.227 34.2583 327.677 34.675C328.144 35.0917 328.777 35.3 329.577 35.3C330.394 35.3 331.035 35.1083 331.502 34.725C331.969 34.325 332.202 33.8083 332.202 33.175C332.202 32.6583 332.044 32.2333 331.727 31.9C331.41 31.5667 331.01 31.3083 330.527 31.125C330.06 30.925 329.41 30.7083 328.577 30.475C327.444 30.1417 326.519 29.8167 325.802 29.5C325.102 29.1667 324.494 28.675 323.977 28.025C323.477 27.3583 323.227 26.475 323.227 25.375C323.227 24.3417 323.485 23.4417 324.002 22.675C324.519 21.9083 325.244 21.325 326.177 20.925C327.11 20.5083 328.177 20.3 329.377 20.3C331.177 20.3 332.635 20.7417 333.752 21.625C334.885 22.4917 335.51 23.7083 335.627 25.275H331.777C331.744 24.675 331.485 24.1833 331.002 23.8C330.535 23.4 329.91 23.2 329.127 23.2C328.444 23.2 327.894 23.375 327.477 23.725C327.077 24.075 326.877 24.5833 326.877 25.25C326.877 25.7167 327.027 26.1083 327.327 26.425C327.644 26.725 328.027 26.975 328.477 27.175C328.944 27.3583 329.594 27.575 330.427 27.825C331.56 28.1583 332.485 28.4917 333.202 28.825C333.919 29.1583 334.535 29.6583 335.052 30.325C335.569 30.9917 335.827 31.8667 335.827 32.95C335.827 33.8833 335.585 34.75 335.102 35.55C334.619 36.35 333.91 36.9917 332.977 37.475C332.044 37.9417 330.935 38.175 329.652 38.175ZM342.361 23.375V27.75H348.236V30.525H342.361V35.15H348.986V38H338.861V20.525H348.986V23.375H342.361ZM361.167 38L357.317 31.2H355.667V38H352.167V20.55H358.717C360.067 20.55 361.217 20.7917 362.167 21.275C363.117 21.7417 363.825 22.3833 364.292 23.2C364.775 24 365.017 24.9 365.017 25.9C365.017 27.05 364.684 28.0917 364.017 29.025C363.35 29.9417 362.359 30.575 361.042 30.925L365.217 38H361.167ZM355.667 28.575H358.592C359.542 28.575 360.25 28.35 360.717 27.9C361.184 27.4333 361.417 26.7917 361.417 25.975C361.417 25.175 361.184 24.5583 360.717 24.125C360.25 23.675 359.542 23.45 358.592 23.45H355.667V28.575ZM383.858 20.55L377.458 38H373.208L366.808 20.55H370.558L375.358 34.425L380.133 20.55H383.858ZM389.456 23.375V27.75H395.331V30.525H389.456V35.15H396.081V38H385.956V20.525H396.081V23.375H389.456ZM408.262 38L404.412 31.2H402.762V38H399.262V20.55H405.812C407.162 20.55 408.312 20.7917 409.262 21.275C410.212 21.7417 410.92 22.3833 411.387 23.2C411.87 24 412.112 24.9 412.112 25.9C412.112 27.05 411.778 28.0917 411.112 29.025C410.445 29.9417 409.453 30.575 408.137 30.925L412.312 38H408.262ZM402.762 28.575H405.687C406.637 28.575 407.345 28.35 407.812 27.9C408.278 27.4333 408.512 26.7917 408.512 25.975C408.512 25.175 408.278 24.5583 407.812 24.125C407.345 23.675 406.637 23.45 405.687 23.45H402.762V28.575ZM421.302 38.175C420.086 38.175 418.986 37.9667 418.002 37.55C417.036 37.1333 416.269 36.5333 415.702 35.75C415.136 34.9667 414.844 34.0417 414.827 32.975H418.577C418.627 33.6917 418.877 34.2583 419.327 34.675C419.794 35.0917 420.427 35.3 421.227 35.3C422.044 35.3 422.686 35.1083 423.152 34.725C423.619 34.325 423.852 33.8083 423.852 33.175C423.852 32.6583 423.694 32.2333 423.377 31.9C423.061 31.5667 422.661 31.3083 422.177 31.125C421.711 30.925 421.061 30.7083 420.227 30.475C419.094 30.1417 418.169 29.8167 417.452 29.5C416.752 29.1667 416.144 28.675 415.627 28.025C415.127 27.3583 414.877 26.475 414.877 25.375C414.877 24.3417 415.136 23.4417 415.652 22.675C416.169 21.9083 416.894 21.325 417.827 20.925C418.761 20.5083 419.827 20.3 421.027 20.3C422.827 20.3 424.286 20.7417 425.402 21.625C426.536 22.4917 427.161 23.7083 427.277 25.275H423.427C423.394 24.675 423.136 24.1833 422.652 23.8C422.186 23.4 421.561 23.2 420.777 23.2C420.094 23.2 419.544 23.375 419.127 23.725C418.727 24.075 418.527 24.5833 418.527 25.25C418.527 25.7167 418.677 26.1083 418.977 26.425C419.294 26.725 419.677 26.975 420.127 27.175C420.594 27.3583 421.244 27.575 422.077 27.825C423.211 28.1583 424.136 28.4917 424.852 28.825C425.569 29.1583 426.186 29.6583 426.702 30.325C427.219 30.9917 427.477 31.8667 427.477 32.95C427.477 33.8833 427.236 34.75 426.752 35.55C426.269 36.35 425.561 36.9917 424.627 37.475C423.694 37.9417 422.586 38.175 421.302 38.175Z" fill="#48B19B"/>
</svg>
