<svg width="399" height="59" viewBox="0 0 399 59" fill="none" xmlns="http://www.w3.org/2000/svg">
<rect x="30" width="328" height="59" rx="16" fill="#253744"/>
<path d="M60.0257 38.175C58.3924 38.175 56.8924 37.7917 55.5257 37.025C54.159 36.2583 53.0757 35.2 52.2757 33.85C51.4757 32.4833 51.0757 30.9417 51.0757 29.225C51.0757 27.525 51.4757 26 52.2757 24.65C53.0757 23.2833 54.159 22.2167 55.5257 21.45C56.8924 20.6833 58.3924 20.3 60.0257 20.3C61.6757 20.3 63.1757 20.6833 64.5257 21.45C65.8924 22.2167 66.9674 23.2833 67.7507 24.65C68.5507 26 68.9507 27.525 68.9507 29.225C68.9507 30.9417 68.5507 32.4833 67.7507 33.85C66.9674 35.2 65.8924 36.2583 64.5257 37.025C63.159 37.7917 61.659 38.175 60.0257 38.175ZM60.0257 35.05C61.0757 35.05 62.0007 34.8167 62.8007 34.35C63.6007 33.8667 64.2257 33.1833 64.6757 32.3C65.1257 31.4167 65.3507 30.3917 65.3507 29.225C65.3507 28.0583 65.1257 27.0417 64.6757 26.175C64.2257 25.2917 63.6007 24.6167 62.8007 24.15C62.0007 23.6833 61.0757 23.45 60.0257 23.45C58.9757 23.45 58.0424 23.6833 57.2257 24.15C56.4257 24.6167 55.8007 25.2917 55.3507 26.175C54.9007 27.0417 54.6757 28.0583 54.6757 29.225C54.6757 30.3917 54.9007 31.4167 55.3507 32.3C55.8007 33.1833 56.4257 33.8667 57.2257 34.35C58.0424 34.8167 58.9757 35.05 60.0257 35.05ZM84.2796 25.95C84.2796 26.8833 84.0546 27.7583 83.6046 28.575C83.1713 29.3917 82.4796 30.05 81.5296 30.55C80.5963 31.05 79.4129 31.3 77.9796 31.3H75.0546V38H71.5546V20.55H77.9796C79.3296 20.55 80.4796 20.7833 81.4296 21.25C82.3796 21.7167 83.0879 22.3583 83.5546 23.175C84.0379 23.9917 84.2796 24.9167 84.2796 25.95ZM77.8296 28.475C78.7963 28.475 79.5129 28.2583 79.9796 27.825C80.4463 27.375 80.6796 26.75 80.6796 25.95C80.6796 24.25 79.7296 23.4 77.8296 23.4H75.0546V28.475H77.8296ZM90.2646 23.375V27.75H96.1396V30.525H90.2646V35.15H96.8896V38H86.7646V20.525H96.8896V23.375H90.2646ZM109.07 38L105.22 31.2H103.57V38H100.07V20.55H106.62C107.97 20.55 109.12 20.7917 110.07 21.275C111.02 21.7417 111.729 22.3833 112.195 23.2C112.679 24 112.92 24.9 112.92 25.9C112.92 27.05 112.587 28.0917 111.92 29.025C111.254 29.9417 110.262 30.575 108.945 30.925L113.12 38H109.07ZM103.57 28.575H106.495C107.445 28.575 108.154 28.35 108.62 27.9C109.087 27.4333 109.32 26.7917 109.32 25.975C109.32 25.175 109.087 24.5583 108.62 24.125C108.154 23.675 107.445 23.45 106.495 23.45H103.57V28.575ZM126.786 34.675H119.836L118.686 38H115.011L121.286 20.525H125.361L131.636 38H127.936L126.786 34.675ZM125.836 31.875L123.311 24.575L120.786 31.875H125.836ZM145.856 20.55V23.375H141.206V38H137.706V23.375H133.056V20.55H145.856ZM151.91 20.55V38H148.41V20.55H151.91ZM163.468 38.175C161.835 38.175 160.335 37.7917 158.968 37.025C157.601 36.2583 156.518 35.2 155.718 33.85C154.918 32.4833 154.518 30.9417 154.518 29.225C154.518 27.525 154.918 26 155.718 24.65C156.518 23.2833 157.601 22.2167 158.968 21.45C160.335 20.6833 161.835 20.3 163.468 20.3C165.118 20.3 166.618 20.6833 167.968 21.45C169.335 22.2167 170.41 23.2833 171.193 24.65C171.993 26 172.393 27.525 172.393 29.225C172.393 30.9417 171.993 32.4833 171.193 33.85C170.41 35.2 169.335 36.2583 167.968 37.025C166.601 37.7917 165.101 38.175 163.468 38.175ZM163.468 35.05C164.518 35.05 165.443 34.8167 166.243 34.35C167.043 33.8667 167.668 33.1833 168.118 32.3C168.568 31.4167 168.793 30.3917 168.793 29.225C168.793 28.0583 168.568 27.0417 168.118 26.175C167.668 25.2917 167.043 24.6167 166.243 24.15C165.443 23.6833 164.518 23.45 163.468 23.45C162.418 23.45 161.485 23.6833 160.668 24.15C159.868 24.6167 159.243 25.2917 158.793 26.175C158.343 27.0417 158.118 28.0583 158.118 29.225C158.118 30.3917 158.343 31.4167 158.793 32.3C159.243 33.1833 159.868 33.8667 160.668 34.35C161.485 34.8167 162.418 35.05 163.468 35.05ZM189.922 38H186.422L178.497 26.025V38H174.997V20.525H178.497L186.422 32.525V20.525H189.922V38ZM204.081 34.675H197.131L195.981 38H192.306L198.581 20.525H202.656L208.931 38H205.231L204.081 34.675ZM203.131 31.875L200.606 24.575L198.081 31.875H203.131ZM214.776 35.225H220.526V38H211.276V20.55H214.776V35.225ZM234.733 38.175C233.516 38.175 232.416 37.9667 231.433 37.55C230.466 37.1333 229.7 36.5333 229.133 35.75C228.566 34.9667 228.275 34.0417 228.258 32.975H232.008C232.058 33.6917 232.308 34.2583 232.758 34.675C233.225 35.0917 233.858 35.3 234.658 35.3C235.475 35.3 236.116 35.1083 236.583 34.725C237.05 34.325 237.283 33.8083 237.283 33.175C237.283 32.6583 237.125 32.2333 236.808 31.9C236.491 31.5667 236.091 31.3083 235.608 31.125C235.141 30.925 234.491 30.7083 233.658 30.475C232.525 30.1417 231.6 29.8167 230.883 29.5C230.183 29.1667 229.575 28.675 229.058 28.025C228.558 27.3583 228.308 26.475 228.308 25.375C228.308 24.3417 228.566 23.4417 229.083 22.675C229.6 21.9083 230.325 21.325 231.258 20.925C232.191 20.5083 233.258 20.3 234.458 20.3C236.258 20.3 237.716 20.7417 238.833 21.625C239.966 22.4917 240.591 23.7083 240.708 25.275H236.858C236.825 24.675 236.566 24.1833 236.083 23.8C235.616 23.4 234.991 23.2 234.208 23.2C233.525 23.2 232.975 23.375 232.558 23.725C232.158 24.075 231.958 24.5833 231.958 25.25C231.958 25.7167 232.108 26.1083 232.408 26.425C232.725 26.725 233.108 26.975 233.558 27.175C234.025 27.3583 234.675 27.575 235.508 27.825C236.641 28.1583 237.566 28.4917 238.283 28.825C239 29.1583 239.616 29.6583 240.133 30.325C240.65 30.9917 240.908 31.8667 240.908 32.95C240.908 33.8833 240.666 34.75 240.183 35.55C239.7 36.35 238.991 36.9917 238.058 37.475C237.125 37.9417 236.016 38.175 234.733 38.175ZM257.817 20.55L251.917 31.925V38H248.417V31.925L242.492 20.55H246.442L250.192 28.525L253.917 20.55H257.817ZM265.861 38.175C264.644 38.175 263.544 37.9667 262.561 37.55C261.594 37.1333 260.828 36.5333 260.261 35.75C259.694 34.9667 259.403 34.0417 259.386 32.975H263.136C263.186 33.6917 263.436 34.2583 263.886 34.675C264.353 35.0917 264.986 35.3 265.786 35.3C266.603 35.3 267.244 35.1083 267.711 34.725C268.178 34.325 268.411 33.8083 268.411 33.175C268.411 32.6583 268.253 32.2333 267.936 31.9C267.619 31.5667 267.219 31.3083 266.736 31.125C266.269 30.925 265.619 30.7083 264.786 30.475C263.653 30.1417 262.728 29.8167 262.011 29.5C261.311 29.1667 260.703 28.675 260.186 28.025C259.686 27.3583 259.436 26.475 259.436 25.375C259.436 24.3417 259.694 23.4417 260.211 22.675C260.728 21.9083 261.453 21.325 262.386 20.925C263.319 20.5083 264.386 20.3 265.586 20.3C267.386 20.3 268.844 20.7417 269.961 21.625C271.094 22.4917 271.719 23.7083 271.836 25.275H267.986C267.953 24.675 267.694 24.1833 267.211 23.8C266.744 23.4 266.119 23.2 265.336 23.2C264.653 23.2 264.103 23.375 263.686 23.725C263.286 24.075 263.086 24.5833 263.086 25.25C263.086 25.7167 263.236 26.1083 263.536 26.425C263.853 26.725 264.236 26.975 264.686 27.175C265.153 27.3583 265.803 27.575 266.636 27.825C267.769 28.1583 268.694 28.4917 269.411 28.825C270.128 29.1583 270.744 29.6583 271.261 30.325C271.778 30.9917 272.036 31.8667 272.036 32.95C272.036 33.8833 271.794 34.75 271.311 35.55C270.828 36.35 270.119 36.9917 269.186 37.475C268.253 37.9417 267.144 38.175 265.861 38.175ZM286.945 20.55V23.375H282.295V38H278.795V23.375H274.145V20.55H286.945ZM292.999 23.375V27.75H298.874V30.525H292.999V35.15H299.624V38H289.499V20.525H299.624V23.375H292.999ZM321.83 20.55V38H318.33V26.65L313.655 38H311.005L306.305 26.65V38H302.805V20.55H306.78L312.33 33.525L317.88 20.55H321.83ZM331.315 38.175C330.098 38.175 328.998 37.9667 328.015 37.55C327.048 37.1333 326.282 36.5333 325.715 35.75C325.148 34.9667 324.857 34.0417 324.84 32.975H328.59C328.64 33.6917 328.89 34.2583 329.34 34.675C329.807 35.0917 330.44 35.3 331.24 35.3C332.057 35.3 332.698 35.1083 333.165 34.725C333.632 34.325 333.865 33.8083 333.865 33.175C333.865 32.6583 333.707 32.2333 333.39 31.9C333.073 31.5667 332.673 31.3083 332.19 31.125C331.723 30.925 331.073 30.7083 330.24 30.475C329.107 30.1417 328.182 29.8167 327.465 29.5C326.765 29.1667 326.157 28.675 325.64 28.025C325.14 27.3583 324.89 26.475 324.89 25.375C324.89 24.3417 325.148 23.4417 325.665 22.675C326.182 21.9083 326.907 21.325 327.84 20.925C328.773 20.5083 329.84 20.3 331.04 20.3C332.84 20.3 334.298 20.7417 335.415 21.625C336.548 22.4917 337.173 23.7083 337.29 25.275H333.44C333.407 24.675 333.148 24.1833 332.665 23.8C332.198 23.4 331.573 23.2 330.79 23.2C330.107 23.2 329.557 23.375 329.14 23.725C328.74 24.075 328.54 24.5833 328.54 25.25C328.54 25.7167 328.69 26.1083 328.99 26.425C329.307 26.725 329.69 26.975 330.14 27.175C330.607 27.3583 331.257 27.575 332.09 27.825C333.223 28.1583 334.148 28.4917 334.865 28.825C335.582 29.1583 336.198 29.6583 336.715 30.325C337.232 30.9917 337.49 31.8667 337.49 32.95C337.49 33.8833 337.248 34.75 336.765 35.55C336.282 36.35 335.573 36.9917 334.64 37.475C333.707 37.9417 332.598 38.175 331.315 38.175Z" fill="#48B19B"/>
</svg>
