<svg width="383" height="61" viewBox="0 0 383 61" fill="none" xmlns="http://www.w3.org/2000/svg">
<rect x="7" width="376" height="59" rx="16" fill="#253744"/>
<path d="M41.8602 26.95C41.8602 27.8833 41.6352 28.7583 41.1852 29.575C40.7518 30.3917 40.0602 31.05 39.1102 31.55C38.1768 32.05 36.9935 32.3 35.5602 32.3H32.6352V39H29.1352V21.55H35.5602C36.9102 21.55 38.0602 21.7833 39.0102 22.25C39.9602 22.7167 40.6685 23.3583 41.1352 24.175C41.6185 24.9917 41.8602 25.9167 41.8602 26.95ZM35.4102 29.475C36.3768 29.475 37.0935 29.2583 37.5602 28.825C38.0268 28.375 38.2602 27.75 38.2602 26.95C38.2602 25.25 37.3102 24.4 35.4102 24.4H32.6352V29.475H35.4102ZM53.3451 39L49.4951 32.2H47.8451V39H44.3451V21.55H50.8951C52.2451 21.55 53.3951 21.7917 54.3451 22.275C55.2951 22.7417 56.0035 23.3833 56.4701 24.2C56.9535 25 57.1951 25.9 57.1951 26.9C57.1951 28.05 56.8618 29.0917 56.1951 30.025C55.5285 30.9417 54.5368 31.575 53.2201 31.925L57.3951 39H53.3451ZM47.8451 29.575H50.7701C51.7201 29.575 52.4285 29.35 52.8951 28.9C53.3618 28.4333 53.5951 27.7917 53.5951 26.975C53.5951 26.175 53.3618 25.5583 52.8951 25.125C52.4285 24.675 51.7201 24.45 50.7701 24.45H47.8451V29.575ZM68.4607 39.175C66.8274 39.175 65.3274 38.7917 63.9607 38.025C62.5941 37.2583 61.5107 36.2 60.7107 34.85C59.9107 33.4833 59.5107 31.9417 59.5107 30.225C59.5107 28.525 59.9107 27 60.7107 25.65C61.5107 24.2833 62.5941 23.2167 63.9607 22.45C65.3274 21.6833 66.8274 21.3 68.4607 21.3C70.1107 21.3 71.6107 21.6833 72.9607 22.45C74.3274 23.2167 75.4024 24.2833 76.1857 25.65C76.9857 27 77.3857 28.525 77.3857 30.225C77.3857 31.9417 76.9857 33.4833 76.1857 34.85C75.4024 36.2 74.3274 37.2583 72.9607 38.025C71.5941 38.7917 70.0941 39.175 68.4607 39.175ZM68.4607 36.05C69.5107 36.05 70.4357 35.8167 71.2357 35.35C72.0357 34.8667 72.6607 34.1833 73.1107 33.3C73.5607 32.4167 73.7857 31.3917 73.7857 30.225C73.7857 29.0583 73.5607 28.0417 73.1107 27.175C72.6607 26.2917 72.0357 25.6167 71.2357 25.15C70.4357 24.6833 69.5107 24.45 68.4607 24.45C67.4107 24.45 66.4774 24.6833 65.6607 25.15C64.8607 25.6167 64.2357 26.2917 63.7857 27.175C63.3357 28.0417 63.1107 29.0583 63.1107 30.225C63.1107 31.3917 63.3357 32.4167 63.7857 33.3C64.2357 34.1833 64.8607 34.8667 65.6607 35.35C66.4774 35.8167 67.4107 36.05 68.4607 36.05ZM92.1396 26.8C91.7396 26.0667 91.1896 25.5083 90.4896 25.125C89.7896 24.7417 88.973 24.55 88.0396 24.55C87.0063 24.55 86.0896 24.7833 85.2896 25.25C84.4896 25.7167 83.8646 26.3833 83.4146 27.25C82.9646 28.1167 82.7396 29.1167 82.7396 30.25C82.7396 31.4167 82.9646 32.4333 83.4146 33.3C83.8813 34.1667 84.523 34.8333 85.3396 35.3C86.1563 35.7667 87.1063 36 88.1896 36C89.523 36 90.6146 35.65 91.4646 34.95C92.3146 34.2333 92.873 33.2417 93.1396 31.975H87.1396V29.3H96.5896V32.35C96.3563 33.5667 95.8563 34.6917 95.0896 35.725C94.323 36.7583 93.3313 37.5917 92.1146 38.225C90.9146 38.8417 89.5646 39.15 88.0646 39.15C86.3813 39.15 84.8563 38.775 83.4896 38.025C82.1396 37.2583 81.073 36.2 80.2896 34.85C79.523 33.5 79.1396 31.9667 79.1396 30.25C79.1396 28.5333 79.523 27 80.2896 25.65C81.073 24.2833 82.1396 23.225 83.4896 22.475C84.8563 21.7083 86.373 21.325 88.0396 21.325C90.0063 21.325 91.7146 21.8083 93.1646 22.775C94.6146 23.725 95.6146 25.0667 96.1646 26.8H92.1396ZM108.179 39L104.329 32.2H102.679V39H99.1791V21.55H105.729C107.079 21.55 108.229 21.7917 109.179 22.275C110.129 22.7417 110.837 23.3833 111.304 24.2C111.787 25 112.029 25.9 112.029 26.9C112.029 28.05 111.696 29.0917 111.029 30.025C110.362 30.9417 109.371 31.575 108.054 31.925L112.229 39H108.179ZM102.679 29.575H105.604C106.554 29.575 107.262 29.35 107.729 28.9C108.196 28.4333 108.429 27.7917 108.429 26.975C108.429 26.175 108.196 25.5583 107.729 25.125C107.262 24.675 106.554 24.45 105.604 24.45H102.679V29.575ZM125.895 35.675H118.945L117.795 39H114.12L120.395 21.525H124.47L130.745 39H127.045L125.895 35.675ZM124.945 32.875L122.42 25.575L119.895 32.875H124.945ZM152.115 21.55V39H148.615V27.65L143.94 39H141.29L136.59 27.65V39H133.09V21.55H137.065L142.615 34.525L148.165 21.55H152.115ZM174.601 21.55V39H171.101V27.65L166.426 39H163.776L159.076 27.65V39H155.576V21.55H159.551L165.101 34.525L170.651 21.55H174.601ZM181.561 21.55V39H178.061V21.55H181.561ZM199.944 39H196.444L188.519 27.025V39H185.019V21.525H188.519L196.444 33.525V21.525H199.944V39ZM215.553 26.8C215.153 26.0667 214.603 25.5083 213.903 25.125C213.203 24.7417 212.386 24.55 211.453 24.55C210.419 24.55 209.503 24.7833 208.703 25.25C207.903 25.7167 207.278 26.3833 206.828 27.25C206.378 28.1167 206.153 29.1167 206.153 30.25C206.153 31.4167 206.378 32.4333 206.828 33.3C207.294 34.1667 207.936 34.8333 208.753 35.3C209.569 35.7667 210.519 36 211.603 36C212.936 36 214.028 35.65 214.878 34.95C215.728 34.2333 216.286 33.2417 216.553 31.975H210.553V29.3H220.003V32.35C219.769 33.5667 219.269 34.6917 218.503 35.725C217.736 36.7583 216.744 37.5917 215.528 38.225C214.328 38.8417 212.978 39.15 211.478 39.15C209.794 39.15 208.269 38.775 206.903 38.025C205.553 37.2583 204.486 36.2 203.703 34.85C202.936 33.5 202.553 31.9667 202.553 30.25C202.553 28.5333 202.936 27 203.703 25.65C204.486 24.2833 205.553 23.225 206.903 22.475C208.269 21.7083 209.786 21.325 211.453 21.325C213.419 21.325 215.128 21.8083 216.578 22.775C218.028 23.725 219.028 25.0667 219.578 26.8H215.553ZM232.049 36.225H237.799V39H228.549V21.55H232.049V36.225ZM250.724 35.675H243.774L242.624 39H238.949L245.224 21.525H249.299L255.574 39H251.874L250.724 35.675ZM249.774 32.875L247.249 25.575L244.724 32.875H249.774ZM272.844 39H269.344L261.419 27.025V39H257.919V21.525H261.419L269.344 33.525V21.525H272.844V39ZM288.453 26.8C288.053 26.0667 287.503 25.5083 286.803 25.125C286.103 24.7417 285.286 24.55 284.353 24.55C283.32 24.55 282.403 24.7833 281.603 25.25C280.803 25.7167 280.178 26.3833 279.728 27.25C279.278 28.1167 279.053 29.1167 279.053 30.25C279.053 31.4167 279.278 32.4333 279.728 33.3C280.195 34.1667 280.836 34.8333 281.653 35.3C282.47 35.7667 283.42 36 284.503 36C285.836 36 286.928 35.65 287.778 34.95C288.628 34.2333 289.186 33.2417 289.453 31.975H283.453V29.3H292.903V32.35C292.67 33.5667 292.17 34.6917 291.403 35.725C290.636 36.7583 289.645 37.5917 288.428 38.225C287.228 38.8417 285.878 39.15 284.378 39.15C282.695 39.15 281.17 38.775 279.803 38.025C278.453 37.2583 277.386 36.2 276.603 34.85C275.836 33.5 275.453 31.9667 275.453 30.25C275.453 28.5333 275.836 27 276.603 25.65C277.386 24.2833 278.453 23.225 279.803 22.475C281.17 21.7083 282.686 21.325 284.353 21.325C286.32 21.325 288.028 21.8083 289.478 22.775C290.928 23.725 291.928 25.0667 292.478 26.8H288.453ZM298.943 21.55V32.35C298.943 33.5333 299.251 34.4417 299.868 35.075C300.484 35.6917 301.351 36 302.468 36C303.601 36 304.476 35.6917 305.093 35.075C305.709 34.4417 306.018 33.5333 306.018 32.35V21.55H309.543V32.325C309.543 33.8083 309.218 35.0667 308.568 36.1C307.934 37.1167 307.076 37.8833 305.993 38.4C304.926 38.9167 303.734 39.175 302.418 39.175C301.118 39.175 299.934 38.9167 298.868 38.4C297.818 37.8833 296.984 37.1167 296.368 36.1C295.751 35.0667 295.443 33.8083 295.443 32.325V21.55H298.943ZM323.624 35.675H316.674L315.524 39H311.849L318.124 21.525H322.199L328.474 39H324.774L323.624 35.675ZM322.674 32.875L320.149 25.575L317.624 32.875H322.674ZM342.97 26.8C342.57 26.0667 342.02 25.5083 341.32 25.125C340.62 24.7417 339.803 24.55 338.87 24.55C337.836 24.55 336.92 24.7833 336.12 25.25C335.32 25.7167 334.695 26.3833 334.245 27.25C333.795 28.1167 333.57 29.1167 333.57 30.25C333.57 31.4167 333.795 32.4333 334.245 33.3C334.711 34.1667 335.353 34.8333 336.17 35.3C336.986 35.7667 337.936 36 339.02 36C340.353 36 341.445 35.65 342.295 34.95C343.145 34.2333 343.703 33.2417 343.97 31.975H337.97V29.3H347.42V32.35C347.186 33.5667 346.686 34.6917 345.92 35.725C345.153 36.7583 344.161 37.5917 342.945 38.225C341.745 38.8417 340.395 39.15 338.895 39.15C337.211 39.15 335.686 38.775 334.32 38.025C332.97 37.2583 331.903 36.2 331.12 34.85C330.353 33.5 329.97 31.9667 329.97 30.25C329.97 28.5333 330.353 27 331.12 25.65C331.903 24.2833 332.97 23.225 334.32 22.475C335.686 21.7083 337.203 21.325 338.87 21.325C340.836 21.325 342.545 21.8083 343.995 22.775C345.445 23.725 346.445 25.0667 346.995 26.8H342.97ZM353.509 24.375V28.75H359.384V31.525H353.509V36.15H360.134V39H350.009V21.525H360.134V24.375H353.509Z" fill="#48B19B"/>
</svg>
