<svg width="416" height="59" viewBox="0 0 416 59" fill="none" xmlns="http://www.w3.org/2000/svg">
<rect width="416" height="59" rx="16" fill="#253744"/>
<path d="M25.2476 38.175C24.0309 38.175 22.9309 37.9667 21.9476 37.55C20.9809 37.1333 20.2142 36.5333 19.6476 35.75C19.0809 34.9667 18.7892 34.0417 18.7726 32.975H22.5226C22.5726 33.6917 22.8226 34.2583 23.2726 34.675C23.7392 35.0917 24.3726 35.3 25.1726 35.3C25.9892 35.3 26.6309 35.1083 27.0976 34.725C27.5642 34.325 27.7976 33.8083 27.7976 33.175C27.7976 32.6583 27.6392 32.2333 27.3226 31.9C27.0059 31.5667 26.6059 31.3083 26.1226 31.125C25.6559 30.925 25.0059 30.7083 24.1726 30.475C23.0392 30.1417 22.1142 29.8167 21.3976 29.5C20.6976 29.1667 20.0892 28.675 19.5726 28.025C19.0726 27.3583 18.8226 26.475 18.8226 25.375C18.8226 24.3417 19.0809 23.4417 19.5976 22.675C20.1142 21.9083 20.8392 21.325 21.7726 20.925C22.7059 20.5083 23.7726 20.3 24.9726 20.3C26.7726 20.3 28.2309 20.7417 29.3476 21.625C30.4809 22.4917 31.1059 23.7083 31.2226 25.275H27.3726C27.3392 24.675 27.0809 24.1833 26.5976 23.8C26.1309 23.4 25.5059 23.2 24.7226 23.2C24.0392 23.2 23.4892 23.375 23.0726 23.725C22.6726 24.075 22.4726 24.5833 22.4726 25.25C22.4726 25.7167 22.6226 26.1083 22.9226 26.425C23.2392 26.725 23.6226 26.975 24.0726 27.175C24.5392 27.3583 25.1892 27.575 26.0226 27.825C27.1559 28.1583 28.0809 28.4917 28.7976 28.825C29.5142 29.1583 30.1309 29.6583 30.6476 30.325C31.1642 30.9917 31.4226 31.8667 31.4226 32.95C31.4226 33.8833 31.1809 34.75 30.6976 35.55C30.2142 36.35 29.5059 36.9917 28.5726 37.475C27.6392 37.9417 26.5309 38.175 25.2476 38.175ZM46.3319 20.55V23.375H41.6819V38H38.1819V23.375H33.5319V20.55H46.3319ZM52.3856 23.375V27.75H58.2606V30.525H52.3856V35.15H59.0106V38H48.8856V20.525H59.0106V23.375H52.3856ZM65.6913 35.225H71.4413V38H62.1913V20.55H65.6913V35.225ZM77.1659 35.225H82.9159V38H73.6659V20.55H77.1659V35.225ZM95.8405 34.675H88.8905L87.7405 38H84.0655L90.3405 20.525H94.4155L100.691 38H96.9905L95.8405 34.675ZM94.8905 31.875L92.3655 24.575L89.8405 31.875H94.8905ZM112.036 38L108.186 31.2H106.536V38H103.036V20.55H109.586C110.936 20.55 112.086 20.7917 113.036 21.275C113.986 21.7417 114.694 22.3833 115.161 23.2C115.644 24 115.886 24.9 115.886 25.9C115.886 27.05 115.553 28.0917 114.886 29.025C114.219 29.9417 113.228 30.575 111.911 30.925L116.086 38H112.036ZM106.536 28.575H109.461C110.411 28.575 111.119 28.35 111.586 27.9C112.053 27.4333 112.286 26.7917 112.286 25.975C112.286 25.175 112.053 24.5583 111.586 24.125C111.119 23.675 110.411 23.45 109.461 23.45H106.536V28.575ZM137.734 25.95C137.734 26.8833 137.509 27.7583 137.059 28.575C136.625 29.3917 135.934 30.05 134.984 30.55C134.05 31.05 132.867 31.3 131.434 31.3H128.509V38H125.009V20.55H131.434C132.784 20.55 133.934 20.7833 134.884 21.25C135.834 21.7167 136.542 22.3583 137.009 23.175C137.492 23.9917 137.734 24.9167 137.734 25.95ZM131.284 28.475C132.25 28.475 132.967 28.2583 133.434 27.825C133.9 27.375 134.134 26.75 134.134 25.95C134.134 24.25 133.184 23.4 131.284 23.4H128.509V28.475H131.284ZM149.219 38L145.369 31.2H143.719V38H140.219V20.55H146.769C148.119 20.55 149.269 20.7917 150.219 21.275C151.169 21.7417 151.877 22.3833 152.344 23.2C152.827 24 153.069 24.9 153.069 25.9C153.069 27.05 152.735 28.0917 152.069 29.025C151.402 29.9417 150.41 30.575 149.094 30.925L153.269 38H149.219ZM143.719 28.575H146.644C147.594 28.575 148.302 28.35 148.769 27.9C149.235 27.4333 149.469 26.7917 149.469 25.975C149.469 25.175 149.235 24.5583 148.769 24.125C148.302 23.675 147.594 23.45 146.644 23.45H143.719V28.575ZM164.334 38.175C162.701 38.175 161.201 37.7917 159.834 37.025C158.468 36.2583 157.384 35.2 156.584 33.85C155.784 32.4833 155.384 30.9417 155.384 29.225C155.384 27.525 155.784 26 156.584 24.65C157.384 23.2833 158.468 22.2167 159.834 21.45C161.201 20.6833 162.701 20.3 164.334 20.3C165.984 20.3 167.484 20.6833 168.834 21.45C170.201 22.2167 171.276 23.2833 172.059 24.65C172.859 26 173.259 27.525 173.259 29.225C173.259 30.9417 172.859 32.4833 172.059 33.85C171.276 35.2 170.201 36.2583 168.834 37.025C167.468 37.7917 165.968 38.175 164.334 38.175ZM164.334 35.05C165.384 35.05 166.309 34.8167 167.109 34.35C167.909 33.8667 168.534 33.1833 168.984 32.3C169.434 31.4167 169.659 30.3917 169.659 29.225C169.659 28.0583 169.434 27.0417 168.984 26.175C168.534 25.2917 167.909 24.6167 167.109 24.15C166.309 23.6833 165.384 23.45 164.334 23.45C163.284 23.45 162.351 23.6833 161.534 24.15C160.734 24.6167 160.109 25.2917 159.659 26.175C159.209 27.0417 158.984 28.0583 158.984 29.225C158.984 30.3917 159.209 31.4167 159.659 32.3C160.109 33.1833 160.734 33.8667 161.534 34.35C162.351 34.8167 163.284 35.05 164.334 35.05ZM188.013 25.8C187.613 25.0667 187.063 24.5083 186.363 24.125C185.663 23.7417 184.847 23.55 183.913 23.55C182.88 23.55 181.963 23.7833 181.163 24.25C180.363 24.7167 179.738 25.3833 179.288 26.25C178.838 27.1167 178.613 28.1167 178.613 29.25C178.613 30.4167 178.838 31.4333 179.288 32.3C179.755 33.1667 180.397 33.8333 181.213 34.3C182.03 34.7667 182.98 35 184.063 35C185.397 35 186.488 34.65 187.338 33.95C188.188 33.2333 188.747 32.2417 189.013 30.975H183.013V28.3H192.463V31.35C192.23 32.5667 191.73 33.6917 190.963 34.725C190.197 35.7583 189.205 36.5917 187.988 37.225C186.788 37.8417 185.438 38.15 183.938 38.15C182.255 38.15 180.73 37.775 179.363 37.025C178.013 36.2583 176.947 35.2 176.163 33.85C175.397 32.5 175.013 30.9667 175.013 29.25C175.013 27.5333 175.397 26 176.163 24.65C176.947 23.2833 178.013 22.225 179.363 21.475C180.73 20.7083 182.247 20.325 183.913 20.325C185.88 20.325 187.588 20.8083 189.038 21.775C190.488 22.725 191.488 24.0667 192.038 25.8H188.013ZM204.053 38L200.203 31.2H198.553V38H195.053V20.55H201.603C202.953 20.55 204.103 20.7917 205.053 21.275C206.003 21.7417 206.711 22.3833 207.178 23.2C207.661 24 207.903 24.9 207.903 25.9C207.903 27.05 207.569 28.0917 206.903 29.025C206.236 29.9417 205.244 30.575 203.928 30.925L208.103 38H204.053ZM198.553 28.575H201.478C202.428 28.575 203.136 28.35 203.603 27.9C204.069 27.4333 204.303 26.7917 204.303 25.975C204.303 25.175 204.069 24.5583 203.603 24.125C203.136 23.675 202.428 23.45 201.478 23.45H198.553V28.575ZM221.768 34.675H214.818L213.668 38H209.993L216.268 20.525H220.343L226.618 38H222.918L221.768 34.675ZM220.818 31.875L218.293 24.575L215.768 31.875H220.818ZM247.989 20.55V38H244.489V26.65L239.814 38H237.164L232.464 26.65V38H228.964V20.55H232.939L238.489 33.525L244.039 20.55H247.989ZM270.474 20.55V38H266.974V26.65L262.299 38H259.649L254.949 26.65V38H251.449V20.55H255.424L260.974 33.525L266.524 20.55H270.474ZM277.434 20.55V38H273.934V20.55H277.434ZM295.817 38H292.317L284.392 26.025V38H280.892V20.525H284.392L292.317 32.525V20.525H295.817V38ZM311.426 25.8C311.026 25.0667 310.476 24.5083 309.776 24.125C309.076 23.7417 308.26 23.55 307.326 23.55C306.293 23.55 305.376 23.7833 304.576 24.25C303.776 24.7167 303.151 25.3833 302.701 26.25C302.251 27.1167 302.026 28.1167 302.026 29.25C302.026 30.4167 302.251 31.4333 302.701 32.3C303.168 33.1667 303.81 33.8333 304.626 34.3C305.443 34.7667 306.393 35 307.476 35C308.81 35 309.901 34.65 310.751 33.95C311.601 33.2333 312.16 32.2417 312.426 30.975H306.426V28.3H315.876V31.35C315.643 32.5667 315.143 33.6917 314.376 34.725C313.61 35.7583 312.618 36.5917 311.401 37.225C310.201 37.8417 308.851 38.15 307.351 38.15C305.668 38.15 304.143 37.775 302.776 37.025C301.426 36.2583 300.36 35.2 299.576 33.85C298.81 32.5 298.426 30.9667 298.426 29.25C298.426 27.5333 298.81 26 299.576 24.65C300.36 23.2833 301.426 22.225 302.776 21.475C304.143 20.7083 305.66 20.325 307.326 20.325C309.293 20.325 311.001 20.8083 312.451 21.775C313.901 22.725 314.901 24.0667 315.451 25.8H311.426ZM336.573 25.8C336.173 25.0667 335.623 24.5083 334.923 24.125C334.223 23.7417 333.406 23.55 332.473 23.55C331.439 23.55 330.523 23.7833 329.723 24.25C328.923 24.7167 328.298 25.3833 327.848 26.25C327.398 27.1167 327.173 28.1167 327.173 29.25C327.173 30.4167 327.398 31.4333 327.848 32.3C328.314 33.1667 328.956 33.8333 329.773 34.3C330.589 34.7667 331.539 35 332.623 35C333.956 35 335.048 34.65 335.898 33.95C336.748 33.2333 337.306 32.2417 337.573 30.975H331.573V28.3H341.023V31.35C340.789 32.5667 340.289 33.6917 339.523 34.725C338.756 35.7583 337.764 36.5917 336.548 37.225C335.348 37.8417 333.998 38.15 332.498 38.15C330.814 38.15 329.289 37.775 327.923 37.025C326.573 36.2583 325.506 35.2 324.723 33.85C323.956 32.5 323.573 30.9667 323.573 29.25C323.573 27.5333 323.956 26 324.723 24.65C325.506 23.2833 326.573 22.225 327.923 21.475C329.289 20.7083 330.806 20.325 332.473 20.325C334.439 20.325 336.148 20.8083 337.598 21.775C339.048 22.725 340.048 24.0667 340.598 25.8H336.573ZM347.062 20.55V31.35C347.062 32.5333 347.371 33.4417 347.987 34.075C348.604 34.6917 349.471 35 350.587 35C351.721 35 352.596 34.6917 353.212 34.075C353.829 33.4417 354.137 32.5333 354.137 31.35V20.55H357.662V31.325C357.662 32.8083 357.337 34.0667 356.687 35.1C356.054 36.1167 355.196 36.8833 354.112 37.4C353.046 37.9167 351.854 38.175 350.537 38.175C349.237 38.175 348.054 37.9167 346.987 37.4C345.937 36.8833 345.104 36.1167 344.487 35.1C343.871 34.0667 343.562 32.8083 343.562 31.325V20.55H347.062ZM364.544 20.55V38H361.044V20.55H364.544ZM374.102 20.55C375.935 20.55 377.544 20.9083 378.927 21.625C380.327 22.3417 381.402 23.3667 382.152 24.7C382.919 26.0167 383.302 27.55 383.302 29.3C383.302 31.05 382.919 32.5833 382.152 33.9C381.402 35.2 380.327 36.2083 378.927 36.925C377.544 37.6417 375.935 38 374.102 38H368.002V20.55H374.102ZM373.977 35.025C375.81 35.025 377.227 34.525 378.227 33.525C379.227 32.525 379.727 31.1167 379.727 29.3C379.727 27.4833 379.227 26.0667 378.227 25.05C377.227 24.0167 375.81 23.5 373.977 23.5H371.502V35.025H373.977ZM389.422 23.375V27.75H395.297V30.525H389.422V35.15H396.047V38H385.922V20.525H396.047V23.375H389.422Z" fill="#48B19B"/>
</svg>
