<svg width="400" height="59" viewBox="0 0 400 59" fill="none" xmlns="http://www.w3.org/2000/svg">
<rect width="400" height="59" rx="16" fill="#253744"/>
<path d="M33.9618 20.55V23.375H29.3118V38H25.8118V23.375H21.1618V20.55H33.9618ZM50.3905 20.55L44.4905 31.925V38H40.9905V31.925L35.0655 20.55H39.0155L42.7655 28.525L46.4905 20.55H50.3905ZM65.1341 25.95C65.1341 26.8833 64.9091 27.7583 64.4591 28.575C64.0257 29.3917 63.3341 30.05 62.3841 30.55C61.4507 31.05 60.2674 31.3 58.8341 31.3H55.9091V38H52.4091V20.55H58.8341C60.1841 20.55 61.3341 20.7833 62.2841 21.25C63.2341 21.7167 63.9424 22.3583 64.4091 23.175C64.8924 23.9917 65.1341 24.9167 65.1341 25.95ZM58.6841 28.475C59.6507 28.475 60.3674 28.2583 60.8341 27.825C61.3007 27.375 61.5341 26.75 61.5341 25.95C61.5341 24.25 60.5841 23.4 58.6841 23.4H55.9091V28.475H58.6841ZM71.119 23.375V27.75H76.994V30.525H71.119V35.15H77.744V38H67.619V20.525H77.744V23.375H71.119ZM86.9497 38.175C85.733 38.175 84.633 37.9667 83.6497 37.55C82.683 37.1333 81.9164 36.5333 81.3497 35.75C80.783 34.9667 80.4914 34.0417 80.4747 32.975H84.2247C84.2747 33.6917 84.5247 34.2583 84.9747 34.675C85.4414 35.0917 86.0747 35.3 86.8747 35.3C87.6914 35.3 88.333 35.1083 88.7997 34.725C89.2664 34.325 89.4997 33.8083 89.4997 33.175C89.4997 32.6583 89.3414 32.2333 89.0247 31.9C88.708 31.5667 88.308 31.3083 87.8247 31.125C87.358 30.925 86.708 30.7083 85.8747 30.475C84.7414 30.1417 83.8164 29.8167 83.0997 29.5C82.3997 29.1667 81.7914 28.675 81.2747 28.025C80.7747 27.3583 80.5247 26.475 80.5247 25.375C80.5247 24.3417 80.783 23.4417 81.2997 22.675C81.8164 21.9083 82.5414 21.325 83.4747 20.925C84.408 20.5083 85.4747 20.3 86.6747 20.3C88.4747 20.3 89.933 20.7417 91.0497 21.625C92.183 22.4917 92.808 23.7083 92.9247 25.275H89.0747C89.0414 24.675 88.783 24.1833 88.2997 23.8C87.833 23.4 87.208 23.2 86.4247 23.2C85.7414 23.2 85.1914 23.375 84.7747 23.725C84.3747 24.075 84.1747 24.5833 84.1747 25.25C84.1747 25.7167 84.3247 26.1083 84.6247 26.425C84.9414 26.725 85.3247 26.975 85.7747 27.175C86.2414 27.3583 86.8914 27.575 87.7247 27.825C88.858 28.1583 89.783 28.4917 90.4997 28.825C91.2164 29.1583 91.833 29.6583 92.3497 30.325C92.8664 30.9917 93.1247 31.8667 93.1247 32.95C93.1247 33.8833 92.883 34.75 92.3997 35.55C91.9164 36.35 91.208 36.9917 90.2747 37.475C89.3414 37.9417 88.233 38.175 86.9497 38.175ZM110.216 38.175C108.583 38.175 107.083 37.7917 105.716 37.025C104.349 36.2583 103.266 35.2 102.466 33.85C101.666 32.4833 101.266 30.9417 101.266 29.225C101.266 27.525 101.666 26 102.466 24.65C103.266 23.2833 104.349 22.2167 105.716 21.45C107.083 20.6833 108.583 20.3 110.216 20.3C111.866 20.3 113.366 20.6833 114.716 21.45C116.083 22.2167 117.158 23.2833 117.941 24.65C118.741 26 119.141 27.525 119.141 29.225C119.141 30.9417 118.741 32.4833 117.941 33.85C117.158 35.2 116.083 36.2583 114.716 37.025C113.349 37.7917 111.849 38.175 110.216 38.175ZM110.216 35.05C111.266 35.05 112.191 34.8167 112.991 34.35C113.791 33.8667 114.416 33.1833 114.866 32.3C115.316 31.4167 115.541 30.3917 115.541 29.225C115.541 28.0583 115.316 27.0417 114.866 26.175C114.416 25.2917 113.791 24.6167 112.991 24.15C112.191 23.6833 111.266 23.45 110.216 23.45C109.166 23.45 108.233 23.6833 107.416 24.15C106.616 24.6167 105.991 25.2917 105.541 26.175C105.091 27.0417 104.866 28.0583 104.866 29.225C104.866 30.3917 105.091 31.4167 105.541 32.3C105.991 33.1833 106.616 33.8667 107.416 34.35C108.233 34.8167 109.166 35.05 110.216 35.05ZM132.52 20.55V23.375H125.245V27.85H130.82V30.625H125.245V38H121.745V20.55H132.52ZM164.284 20.55L159.409 38H155.284L152.009 25.575L148.584 38L144.484 38.025L139.784 20.55H143.534L146.609 34.1L150.159 20.55H154.059L157.409 34.025L160.509 20.55H164.284ZM170.069 23.375V27.75H175.944V30.525H170.069V35.15H176.694V38H166.569V20.525H176.694V23.375H170.069ZM189.775 29.05C190.758 29.2333 191.567 29.725 192.2 30.525C192.833 31.325 193.15 32.2417 193.15 33.275C193.15 34.2083 192.917 35.0333 192.45 35.75C192 36.45 191.342 37 190.475 37.4C189.608 37.8 188.583 38 187.4 38H179.875V20.55H187.075C188.258 20.55 189.275 20.7417 190.125 21.125C190.992 21.5083 191.642 22.0417 192.075 22.725C192.525 23.4083 192.75 24.1833 192.75 25.05C192.75 26.0667 192.475 26.9167 191.925 27.6C191.392 28.2833 190.675 28.7667 189.775 29.05ZM183.375 27.75H186.575C187.408 27.75 188.05 27.5667 188.5 27.2C188.95 26.8167 189.175 26.275 189.175 25.575C189.175 24.875 188.95 24.3333 188.5 23.95C188.05 23.5667 187.408 23.375 186.575 23.375H183.375V27.75ZM186.9 35.15C187.75 35.15 188.408 34.95 188.875 34.55C189.358 34.15 189.6 33.5833 189.6 32.85C189.6 32.1 189.35 31.5167 188.85 31.1C188.35 30.6667 187.675 30.45 186.825 30.45H183.375V35.15H186.9ZM212.596 34.675H205.646L204.496 38H200.821L207.096 20.525H211.171L217.446 38H213.746L212.596 34.675ZM211.646 31.875L209.121 24.575L206.596 31.875H211.646ZM232.517 25.95C232.517 26.8833 232.292 27.7583 231.842 28.575C231.409 29.3917 230.717 30.05 229.767 30.55C228.834 31.05 227.65 31.3 226.217 31.3H223.292V38H219.792V20.55H226.217C227.567 20.55 228.717 20.7833 229.667 21.25C230.617 21.7167 231.325 22.3583 231.792 23.175C232.275 23.9917 232.517 24.9167 232.517 25.95ZM226.067 28.475C227.034 28.475 227.75 28.2583 228.217 27.825C228.684 27.375 228.917 26.75 228.917 25.95C228.917 24.25 227.967 23.4 226.067 23.4H223.292V28.475H226.067ZM247.727 25.95C247.727 26.8833 247.502 27.7583 247.052 28.575C246.619 29.3917 245.927 30.05 244.977 30.55C244.044 31.05 242.86 31.3 241.427 31.3H238.502V38H235.002V20.55H241.427C242.777 20.55 243.927 20.7833 244.877 21.25C245.827 21.7167 246.535 22.3583 247.002 23.175C247.485 23.9917 247.727 24.9167 247.727 25.95ZM241.277 28.475C242.244 28.475 242.96 28.2583 243.427 27.825C243.894 27.375 244.127 26.75 244.127 25.95C244.127 24.25 243.177 23.4 241.277 23.4H238.502V28.475H241.277ZM253.712 35.225H259.462V38H250.212V20.55H253.712V35.225ZM265.186 20.55V38H261.686V20.55H265.186ZM267.794 29.25C267.794 27.5333 268.178 26 268.944 24.65C269.728 23.2833 270.786 22.225 272.119 21.475C273.469 20.7083 274.978 20.325 276.644 20.325C278.594 20.325 280.303 20.825 281.769 21.825C283.236 22.825 284.261 24.2083 284.844 25.975H280.819C280.419 25.1417 279.853 24.5167 279.119 24.1C278.403 23.6833 277.569 23.475 276.619 23.475C275.603 23.475 274.694 23.7167 273.894 24.2C273.111 24.6667 272.494 25.3333 272.044 26.2C271.611 27.0667 271.394 28.0833 271.394 29.25C271.394 30.4 271.611 31.4167 272.044 32.3C272.494 33.1667 273.111 33.8417 273.894 34.325C274.694 34.7917 275.603 35.025 276.619 35.025C277.569 35.025 278.403 34.8167 279.119 34.4C279.853 33.9667 280.419 33.3333 280.819 32.5H284.844C284.261 34.2833 283.236 35.675 281.769 36.675C280.319 37.6583 278.611 38.15 276.644 38.15C274.978 38.15 273.469 37.775 272.119 37.025C270.786 36.2583 269.728 35.2 268.944 33.85C268.178 32.5 267.794 30.9667 267.794 29.25ZM298.534 34.675H291.584L290.434 38H286.759L293.034 20.525H297.109L303.384 38H299.684L298.534 34.675ZM297.584 31.875L295.059 24.575L292.534 31.875H297.584ZM317.604 20.55V23.375H312.954V38H309.454V23.375H304.804V20.55H317.604ZM323.658 20.55V38H320.158V20.55H323.658ZM335.216 38.175C333.583 38.175 332.083 37.7917 330.716 37.025C329.349 36.2583 328.266 35.2 327.466 33.85C326.666 32.4833 326.266 30.9417 326.266 29.225C326.266 27.525 326.666 26 327.466 24.65C328.266 23.2833 329.349 22.2167 330.716 21.45C332.083 20.6833 333.583 20.3 335.216 20.3C336.866 20.3 338.366 20.6833 339.716 21.45C341.083 22.2167 342.158 23.2833 342.941 24.65C343.741 26 344.141 27.525 344.141 29.225C344.141 30.9417 343.741 32.4833 342.941 33.85C342.158 35.2 341.083 36.2583 339.716 37.025C338.349 37.7917 336.849 38.175 335.216 38.175ZM335.216 35.05C336.266 35.05 337.191 34.8167 337.991 34.35C338.791 33.8667 339.416 33.1833 339.866 32.3C340.316 31.4167 340.541 30.3917 340.541 29.225C340.541 28.0583 340.316 27.0417 339.866 26.175C339.416 25.2917 338.791 24.6167 337.991 24.15C337.191 23.6833 336.266 23.45 335.216 23.45C334.166 23.45 333.233 23.6833 332.416 24.15C331.616 24.6167 330.991 25.2917 330.541 26.175C330.091 27.0417 329.866 28.0583 329.866 29.225C329.866 30.3917 330.091 31.4167 330.541 32.3C330.991 33.1833 331.616 33.8667 332.416 34.35C333.233 34.8167 334.166 35.05 335.216 35.05ZM361.67 38H358.17L350.245 26.025V38H346.745V20.525H350.245L358.17 32.525V20.525H361.67V38ZM371.154 38.175C369.937 38.175 368.837 37.9667 367.854 37.55C366.887 37.1333 366.12 36.5333 365.554 35.75C364.987 34.9667 364.695 34.0417 364.679 32.975H368.429C368.479 33.6917 368.729 34.2583 369.179 34.675C369.645 35.0917 370.279 35.3 371.079 35.3C371.895 35.3 372.537 35.1083 373.004 34.725C373.47 34.325 373.704 33.8083 373.704 33.175C373.704 32.6583 373.545 32.2333 373.229 31.9C372.912 31.5667 372.512 31.3083 372.029 31.125C371.562 30.925 370.912 30.7083 370.079 30.475C368.945 30.1417 368.02 29.8167 367.304 29.5C366.604 29.1667 365.995 28.675 365.479 28.025C364.979 27.3583 364.729 26.475 364.729 25.375C364.729 24.3417 364.987 23.4417 365.504 22.675C366.02 21.9083 366.745 21.325 367.679 20.925C368.612 20.5083 369.679 20.3 370.879 20.3C372.679 20.3 374.137 20.7417 375.254 21.625C376.387 22.4917 377.012 23.7083 377.129 25.275H373.279C373.245 24.675 372.987 24.1833 372.504 23.8C372.037 23.4 371.412 23.2 370.629 23.2C369.945 23.2 369.395 23.375 368.979 23.725C368.579 24.075 368.379 24.5833 368.379 25.25C368.379 25.7167 368.529 26.1083 368.829 26.425C369.145 26.725 369.529 26.975 369.979 27.175C370.445 27.3583 371.095 27.575 371.929 27.825C373.062 28.1583 373.987 28.4917 374.704 28.825C375.42 29.1583 376.037 29.6583 376.554 30.325C377.07 30.9917 377.329 31.8667 377.329 32.95C377.329 33.8833 377.087 34.75 376.604 35.55C376.12 36.35 375.412 36.9917 374.479 37.475C373.545 37.9417 372.437 38.175 371.154 38.175Z" fill="#48B19B"/>
</svg>
